<svg xmlns="http://www.w3.org/2000/svg" width="352" height="264" viewBox="0 0 32 24" shape-rendering="crispEdges">
<!-- 红白机游戏手柄 -->
<rect x="0" y="0" width="28" height="1" fill="#e8e4dc"/>
<rect x="28" y="0" width="1" height="1" fill="#c1272d"/>
<rect x="29" y="0" width="3" height="1" fill="#e8e4dc"/>
<rect x="0" y="1" width="27" height="1" fill="#e8e4dc"/>
<rect x="27" y="1" width="2" height="1" fill="#c1272d"/>
<rect x="29" y="1" width="3" height="1" fill="#e8e4dc"/>
<rect x="0" y="2" width="26" height="1" fill="#e8e4dc"/>
<rect x="26" y="2" width="2" height="1" fill="#c1272d"/>
<rect x="28" y="2" width="4" height="1" fill="#e8e4dc"/>
<rect x="0" y="3" width="25" height="1" fill="#e8e4dc"/>
<rect x="25" y="3" width="2" height="1" fill="#c1272d"/>
<rect x="27" y="3" width="5" height="1" fill="#e8e4dc"/>
<rect x="0" y="4" width="24" height="1" fill="#e8e4dc"/>
<rect x="24" y="4" width="2" height="1" fill="#c1272d"/>
<rect x="26" y="4" width="6" height="1" fill="#e8e4dc"/>
<rect x="0" y="5" width="24" height="1" fill="#e8e4dc"/>
<rect x="24" y="5" width="3" height="1" fill="#c1272d"/>
<rect x="27" y="5" width="5" height="1" fill="#e8e4dc"/>
<rect x="0" y="6" width="5" height="1" fill="#e8e4dc"/>
<rect x="5" y="6" width="22" height="1" fill="#1c1d26"/>
<rect x="27" y="6" width="5" height="1" fill="#e8e4dc"/>
<rect x="0" y="7" width="3" height="1" fill="#e8e4dc"/>
<rect x="3" y="7" width="2" height="1" fill="#1c1d26"/>
<rect x="5" y="7" width="3" height="1" fill="#4d4d61"/>
<rect x="8" y="7" width="1" height="1" fill="#2a2a38"/>
<rect x="9" y="7" width="18" height="1" fill="#4d4d61"/>
<rect x="27" y="7" width="2" height="1" fill="#1c1d26"/>
<rect x="29" y="7" width="3" height="1" fill="#e8e4dc"/>
<rect x="0" y="8" width="2" height="1" fill="#e8e4dc"/>
<rect x="2" y="8" width="1" height="1" fill="#1c1d26"/>
<rect x="3" y="8" width="2" height="1" fill="#4d4d61"/>
<rect x="5" y="8" width="3" height="1" fill="#3a3a4c"/>
<rect x="8" y="8" width="1" height="1" fill="#2a2a38"/>
<rect x="9" y="8" width="20" height="1" fill="#3a3a4c"/>
<rect x="29" y="8" width="1" height="1" fill="#1c1d26"/>
<rect x="30" y="8" width="2" height="1" fill="#e8e4dc"/>
<rect x="0" y="9" width="2" height="1" fill="#e8e4dc"/>
<rect x="2" y="9" width="1" height="1" fill="#1c1d26"/>
<rect x="3" y="9" width="2" height="1" fill="#4d4d61"/>
<rect x="5" y="9" width="3" height="1" fill="#3a3a4c"/>
<rect x="8" y="9" width="1" height="1" fill="#2a2a38"/>
<rect x="9" y="9" width="11" height="1" fill="#3a3a4c"/>
<rect x="20" y="9" width="1" height="1" fill="#e63946"/>
<rect x="21" y="9" width="8" height="1" fill="#3a3a4c"/>
<rect x="29" y="9" width="1" height="1" fill="#1c1d26"/>
<rect x="30" y="9" width="2" height="1" fill="#e8e4dc"/>
<rect x="0" y="10" width="2" height="1" fill="#e8e4dc"/>
<rect x="2" y="10" width="1" height="1" fill="#1c1d26"/>
<rect x="3" y="10" width="2" height="1" fill="#4d4d61"/>
<rect x="5" y="10" width="3" height="1" fill="#3a3a4c"/>
<rect x="8" y="10" width="1" height="1" fill="#2a2a38"/>
<rect x="9" y="10" width="10" height="1" fill="#3a3a4c"/>
<rect x="19" y="10" width="1" height="1" fill="#f25f6b"/>
<rect x="20" y="10" width="2" height="1" fill="#e63946"/>
<rect x="22" y="10" width="3" height="1" fill="#3a3a4c"/>
<rect x="25" y="10" width="1" height="1" fill="#e63946"/>
<rect x="26" y="10" width="3" height="1" fill="#3a3a4c"/>
<rect x="29" y="10" width="1" height="1" fill="#1c1d26"/>
<rect x="30" y="10" width="2" height="1" fill="#e8e4dc"/>
<rect x="0" y="11" width="2" height="1" fill="#e8e4dc"/>
<rect x="2" y="11" width="1" height="1" fill="#1c1d26"/>
<rect x="3" y="11" width="2" height="1" fill="#4d4d61"/>
<rect x="5" y="11" width="3" height="1" fill="#3a3a4c"/>
<rect x="8" y="11" width="1" height="1" fill="#2a2a38"/>
<rect x="9" y="11" width="9" height="1" fill="#3a3a4c"/>
<rect x="18" y="11" width="1" height="1" fill="#c1272d"/>
<rect x="19" y="11" width="4" height="1" fill="#e63946"/>
<rect x="23" y="11" width="1" height="1" fill="#3a3a4c"/>
<rect x="24" y="11" width="1" height="1" fill="#f25f6b"/>
<rect x="25" y="11" width="2" height="1" fill="#e63946"/>
<rect x="27" y="11" width="2" height="1" fill="#3a3a4c"/>
<rect x="29" y="11" width="1" height="1" fill="#1c1d26"/>
<rect x="30" y="11" width="2" height="1" fill="#e8e4dc"/>
<rect x="0" y="12" width="2" height="1" fill="#e8e4dc"/>
<rect x="2" y="12" width="1" height="1" fill="#1c1d26"/>
<rect x="3" y="12" width="2" height="1" fill="#4d4d61"/>
<rect x="5" y="12" width="8" height="1" fill="#2a2a38"/>
<rect x="13" y="12" width="6" height="1" fill="#3a3a4c"/>
<rect x="19" y="12" width="3" height="1" fill="#e63946"/>
<rect x="22" y="12" width="1" height="1" fill="#3a3a4c"/>
<rect x="23" y="12" width="1" height="1" fill="#c1272d"/>
<rect x="24" y="12" width="4" height="1" fill="#e63946"/>
<rect x="28" y="12" width="1" height="1" fill="#3a3a4c"/>
<rect x="29" y="12" width="1" height="1" fill="#1c1d26"/>
<rect x="30" y="12" width="2" height="1" fill="#e8e4dc"/>
<rect x="0" y="13" width="2" height="1" fill="#e8e4dc"/>
<rect x="2" y="13" width="1" height="1" fill="#1c1d26"/>
<rect x="3" y="13" width="2" height="1" fill="#4d4d61"/>
<rect x="5" y="13" width="3" height="1" fill="#3a3a4c"/>
<rect x="8" y="13" width="1" height="1" fill="#2a2a38"/>
<rect x="9" y="13" width="11" height="1" fill="#3a3a4c"/>
<rect x="20" y="13" width="1" height="1" fill="#e63946"/>
<rect x="21" y="13" width="3" height="1" fill="#3a3a4c"/>
<rect x="24" y="13" width="3" height="1" fill="#e63946"/>
<rect x="27" y="13" width="2" height="1" fill="#3a3a4c"/>
<rect x="29" y="13" width="1" height="1" fill="#1c1d26"/>
<rect x="30" y="13" width="2" height="1" fill="#e8e4dc"/>
<rect x="0" y="14" width="2" height="1" fill="#e8e4dc"/>
<rect x="2" y="14" width="1" height="1" fill="#1c1d26"/>
<rect x="3" y="14" width="2" height="1" fill="#4d4d61"/>
<rect x="5" y="14" width="3" height="1" fill="#3a3a4c"/>
<rect x="8" y="14" width="1" height="1" fill="#2a2a38"/>
<rect x="9" y="14" width="16" height="1" fill="#3a3a4c"/>
<rect x="25" y="14" width="1" height="1" fill="#e63946"/>
<rect x="26" y="14" width="3" height="1" fill="#3a3a4c"/>
<rect x="29" y="14" width="1" height="1" fill="#1c1d26"/>
<rect x="30" y="14" width="2" height="1" fill="#e8e4dc"/>
<rect x="0" y="15" width="2" height="1" fill="#e8e4dc"/>
<rect x="2" y="15" width="1" height="1" fill="#1c1d26"/>
<rect x="3" y="15" width="2" height="1" fill="#4d4d61"/>
<rect x="5" y="15" width="3" height="1" fill="#3a3a4c"/>
<rect x="8" y="15" width="1" height="1" fill="#2a2a38"/>
<rect x="9" y="15" width="20" height="1" fill="#3a3a4c"/>
<rect x="29" y="15" width="1" height="1" fill="#1c1d26"/>
<rect x="30" y="15" width="2" height="1" fill="#e8e4dc"/>
<rect x="0" y="16" width="2" height="1" fill="#e8e4dc"/>
<rect x="2" y="16" width="1" height="1" fill="#1c1d26"/>
<rect x="3" y="16" width="2" height="1" fill="#4d4d61"/>
<rect x="5" y="16" width="3" height="1" fill="#3a3a4c"/>
<rect x="8" y="16" width="1" height="1" fill="#2a2a38"/>
<rect x="9" y="16" width="20" height="1" fill="#3a3a4c"/>
<rect x="29" y="16" width="1" height="1" fill="#1c1d26"/>
<rect x="30" y="16" width="2" height="1" fill="#e8e4dc"/>
<rect x="0" y="17" width="2" height="1" fill="#e8e4dc"/>
<rect x="2" y="17" width="1" height="1" fill="#1c1d26"/>
<rect x="3" y="17" width="2" height="1" fill="#4d4d61"/>
<rect x="5" y="17" width="3" height="1" fill="#3a3a4c"/>
<rect x="8" y="17" width="1" height="1" fill="#2a2a38"/>
<rect x="9" y="17" width="20" height="1" fill="#3a3a4c"/>
<rect x="29" y="17" width="1" height="1" fill="#1c1d26"/>
<rect x="30" y="17" width="2" height="1" fill="#e8e4dc"/>
<rect x="0" y="18" width="2" height="1" fill="#e8e4dc"/>
<rect x="2" y="18" width="1" height="1" fill="#1c1d26"/>
<rect x="3" y="18" width="2" height="1" fill="#4d4d61"/>
<rect x="5" y="18" width="6" height="1" fill="#3a3a4c"/>
<rect x="11" y="18" width="1" height="1" fill="#5d5d72"/>
<rect x="12" y="18" width="4" height="1" fill="#8a8aa0"/>
<rect x="16" y="18" width="3" height="1" fill="#3a3a4c"/>
<rect x="19" y="18" width="3" height="1" fill="#8a8aa0"/>
<rect x="22" y="18" width="1" height="1" fill="#5d5d72"/>
<rect x="23" y="18" width="1" height="1" fill="#8a8aa0"/>
<rect x="24" y="18" width="5" height="1" fill="#3a3a4c"/>
<rect x="29" y="18" width="1" height="1" fill="#1c1d26"/>
<rect x="30" y="18" width="2" height="1" fill="#e8e4dc"/>
<rect x="0" y="19" width="2" height="1" fill="#e8e4dc"/>
<rect x="2" y="19" width="1" height="1" fill="#1c1d26"/>
<rect x="3" y="19" width="2" height="1" fill="#4d4d61"/>
<rect x="5" y="19" width="6" height="1" fill="#3a3a4c"/>
<rect x="11" y="19" width="5" height="1" fill="#8a8aa0"/>
<rect x="16" y="19" width="3" height="1" fill="#3a3a4c"/>
<rect x="19" y="19" width="5" height="1" fill="#8a8aa0"/>
<rect x="24" y="19" width="5" height="1" fill="#3a3a4c"/>
<rect x="29" y="19" width="1" height="1" fill="#1c1d26"/>
<rect x="30" y="19" width="2" height="1" fill="#e8e4dc"/>
<rect x="0" y="20" width="3" height="1" fill="#e8e4dc"/>
<rect x="3" y="20" width="2" height="1" fill="#1c1d26"/>
<rect x="5" y="20" width="22" height="1" fill="#3a3a4c"/>
<rect x="27" y="20" width="2" height="1" fill="#1c1d26"/>
<rect x="29" y="20" width="3" height="1" fill="#e8e4dc"/>
<rect x="0" y="21" width="5" height="1" fill="#e8e4dc"/>
<rect x="5" y="21" width="22" height="1" fill="#1c1d26"/>
<rect x="27" y="21" width="5" height="1" fill="#e8e4dc"/>
<rect x="0" y="22" width="32" height="1" fill="#e8e4dc"/>
<rect x="0" y="23" width="32" height="1" fill="#e8e4dc"/>
</svg>
