<svg xmlns="http://www.w3.org/2000/svg" width="768" height="432" viewBox="0 0 96 54" shape-rendering="crispEdges">
<!-- starry lake -->
<rect x="0" y="0" width="96" height="1" fill="#0a1230"/>
<rect x="0" y="1" width="96" height="1" fill="#0a1230"/>
<rect x="0" y="2" width="2" height="1" fill="#0a1230"/>
<rect x="2" y="2" width="1" height="1" fill="#ffffff"/>
<rect x="3" y="2" width="93" height="1" fill="#0a1230"/>
<rect x="0" y="3" width="21" height="1" fill="#0a1230"/>
<rect x="21" y="3" width="1" height="1" fill="#cfe0ff"/>
<rect x="22" y="3" width="61" height="1" fill="#0a1230"/>
<rect x="83" y="3" width="1" height="1" fill="#cfe0ff"/>
<rect x="84" y="3" width="12" height="1" fill="#0a1230"/>
<rect x="0" y="4" width="35" height="1" fill="#0a1230"/>
<rect x="35" y="4" width="1" height="1" fill="#cfe0ff"/>
<rect x="36" y="4" width="60" height="1" fill="#0a1230"/>
<rect x="0" y="5" width="24" height="1" fill="#0a1230"/>
<rect x="24" y="5" width="1" height="1" fill="#e8d9a0"/>
<rect x="25" y="5" width="29" height="1" fill="#0a1230"/>
<rect x="54" y="5" width="1" height="1" fill="#ffffff"/>
<rect x="55" y="5" width="41" height="1" fill="#0a1230"/>
<rect x="0" y="6" width="11" height="1" fill="#0a1230"/>
<rect x="11" y="6" width="1" height="1" fill="#cfe0ff"/>
<rect x="12" y="6" width="10" height="1" fill="#0a1230"/>
<rect x="22" y="6" width="2" height="1" fill="#e8d9a0"/>
<rect x="24" y="6" width="1" height="1" fill="#fff6d8"/>
<rect x="25" y="6" width="2" height="1" fill="#e8d9a0"/>
<rect x="27" y="6" width="1" height="1" fill="#0a1230"/>
<rect x="28" y="6" width="1" height="1" fill="#ffffff"/>
<rect x="29" y="6" width="26" height="1" fill="#0a1230"/>
<rect x="55" y="6" width="1" height="1" fill="#ffffff"/>
<rect x="56" y="6" width="26" height="1" fill="#0a1230"/>
<rect x="82" y="6" width="1" height="1" fill="#cfe0ff"/>
<rect x="83" y="6" width="13" height="1" fill="#0a1230"/>
<rect x="0" y="7" width="21" height="1" fill="#0a1230"/>
<rect x="21" y="7" width="1" height="1" fill="#e8d9a0"/>
<rect x="22" y="7" width="5" height="1" fill="#fff6d8"/>
<rect x="27" y="7" width="1" height="1" fill="#e8d9a0"/>
<rect x="28" y="7" width="64" height="1" fill="#0a1230"/>
<rect x="92" y="7" width="2" height="1" fill="#ffffff"/>
<rect x="94" y="7" width="2" height="1" fill="#0a1230"/>
<rect x="0" y="8" width="1" height="1" fill="#0a1230"/>
<rect x="1" y="8" width="1" height="1" fill="#101a45"/>
<rect x="2" y="8" width="1" height="1" fill="#0a1230"/>
<rect x="3" y="8" width="1" height="1" fill="#101a45"/>
<rect x="4" y="8" width="1" height="1" fill="#0a1230"/>
<rect x="5" y="8" width="1" height="1" fill="#101a45"/>
<rect x="6" y="8" width="1" height="1" fill="#0a1230"/>
<rect x="7" y="8" width="1" height="1" fill="#101a45"/>
<rect x="8" y="8" width="1" height="1" fill="#0a1230"/>
<rect x="9" y="8" width="1" height="1" fill="#101a45"/>
<rect x="10" y="8" width="1" height="1" fill="#0a1230"/>
<rect x="11" y="8" width="1" height="1" fill="#101a45"/>
<rect x="12" y="8" width="1" height="1" fill="#0a1230"/>
<rect x="13" y="8" width="1" height="1" fill="#101a45"/>
<rect x="14" y="8" width="1" height="1" fill="#0a1230"/>
<rect x="15" y="8" width="1" height="1" fill="#101a45"/>
<rect x="16" y="8" width="1" height="1" fill="#0a1230"/>
<rect x="17" y="8" width="1" height="1" fill="#101a45"/>
<rect x="18" y="8" width="1" height="1" fill="#0a1230"/>
<rect x="19" y="8" width="1" height="1" fill="#101a45"/>
<rect x="20" y="8" width="1" height="1" fill="#0a1230"/>
<rect x="21" y="8" width="1" height="1" fill="#e8d9a0"/>
<rect x="22" y="8" width="5" height="1" fill="#fff6d8"/>
<rect x="27" y="8" width="1" height="1" fill="#e8d9a0"/>
<rect x="28" y="8" width="1" height="1" fill="#0a1230"/>
<rect x="29" y="8" width="1" height="1" fill="#101a45"/>
<rect x="30" y="8" width="1" height="1" fill="#0a1230"/>
<rect x="31" y="8" width="1" height="1" fill="#101a45"/>
<rect x="32" y="8" width="1" height="1" fill="#0a1230"/>
<rect x="33" y="8" width="1" height="1" fill="#101a45"/>
<rect x="34" y="8" width="1" height="1" fill="#0a1230"/>
<rect x="35" y="8" width="1" height="1" fill="#101a45"/>
<rect x="36" y="8" width="1" height="1" fill="#0a1230"/>
<rect x="37" y="8" width="1" height="1" fill="#101a45"/>
<rect x="38" y="8" width="1" height="1" fill="#0a1230"/>
<rect x="39" y="8" width="1" height="1" fill="#101a45"/>
<rect x="40" y="8" width="1" height="1" fill="#0a1230"/>
<rect x="41" y="8" width="1" height="1" fill="#101a45"/>
<rect x="42" y="8" width="1" height="1" fill="#0a1230"/>
<rect x="43" y="8" width="1" height="1" fill="#101a45"/>
<rect x="44" y="8" width="1" height="1" fill="#0a1230"/>
<rect x="45" y="8" width="1" height="1" fill="#101a45"/>
<rect x="46" y="8" width="1" height="1" fill="#0a1230"/>
<rect x="47" y="8" width="1" height="1" fill="#101a45"/>
<rect x="48" y="8" width="1" height="1" fill="#0a1230"/>
<rect x="49" y="8" width="1" height="1" fill="#101a45"/>
<rect x="50" y="8" width="1" height="1" fill="#0a1230"/>
<rect x="51" y="8" width="1" height="1" fill="#101a45"/>
<rect x="52" y="8" width="1" height="1" fill="#0a1230"/>
<rect x="53" y="8" width="1" height="1" fill="#101a45"/>
<rect x="54" y="8" width="1" height="1" fill="#0a1230"/>
<rect x="55" y="8" width="1" height="1" fill="#101a45"/>
<rect x="56" y="8" width="1" height="1" fill="#0a1230"/>
<rect x="57" y="8" width="1" height="1" fill="#101a45"/>
<rect x="58" y="8" width="1" height="1" fill="#0a1230"/>
<rect x="59" y="8" width="1" height="1" fill="#101a45"/>
<rect x="60" y="8" width="1" height="1" fill="#0a1230"/>
<rect x="61" y="8" width="1" height="1" fill="#101a45"/>
<rect x="62" y="8" width="1" height="1" fill="#0a1230"/>
<rect x="63" y="8" width="1" height="1" fill="#101a45"/>
<rect x="64" y="8" width="1" height="1" fill="#0a1230"/>
<rect x="65" y="8" width="1" height="1" fill="#101a45"/>
<rect x="66" y="8" width="1" height="1" fill="#0a1230"/>
<rect x="67" y="8" width="1" height="1" fill="#101a45"/>
<rect x="68" y="8" width="1" height="1" fill="#0a1230"/>
<rect x="69" y="8" width="1" height="1" fill="#101a45"/>
<rect x="70" y="8" width="1" height="1" fill="#0a1230"/>
<rect x="71" y="8" width="1" height="1" fill="#101a45"/>
<rect x="72" y="8" width="1" height="1" fill="#0a1230"/>
<rect x="73" y="8" width="1" height="1" fill="#101a45"/>
<rect x="74" y="8" width="1" height="1" fill="#0a1230"/>
<rect x="75" y="8" width="1" height="1" fill="#101a45"/>
<rect x="76" y="8" width="1" height="1" fill="#0a1230"/>
<rect x="77" y="8" width="1" height="1" fill="#101a45"/>
<rect x="78" y="8" width="1" height="1" fill="#0a1230"/>
<rect x="79" y="8" width="1" height="1" fill="#101a45"/>
<rect x="80" y="8" width="1" height="1" fill="#0a1230"/>
<rect x="81" y="8" width="1" height="1" fill="#101a45"/>
<rect x="82" y="8" width="1" height="1" fill="#0a1230"/>
<rect x="83" y="8" width="1" height="1" fill="#101a45"/>
<rect x="84" y="8" width="1" height="1" fill="#0a1230"/>
<rect x="85" y="8" width="1" height="1" fill="#101a45"/>
<rect x="86" y="8" width="1" height="1" fill="#0a1230"/>
<rect x="87" y="8" width="1" height="1" fill="#101a45"/>
<rect x="88" y="8" width="1" height="1" fill="#0a1230"/>
<rect x="89" y="8" width="1" height="1" fill="#101a45"/>
<rect x="90" y="8" width="1" height="1" fill="#cfe0ff"/>
<rect x="91" y="8" width="1" height="1" fill="#101a45"/>
<rect x="92" y="8" width="1" height="1" fill="#0a1230"/>
<rect x="93" y="8" width="1" height="1" fill="#101a45"/>
<rect x="94" y="8" width="1" height="1" fill="#0a1230"/>
<rect x="95" y="8" width="1" height="1" fill="#101a45"/>
<rect x="0" y="9" width="20" height="1" fill="#101a45"/>
<rect x="20" y="9" width="1" height="1" fill="#e8d9a0"/>
<rect x="21" y="9" width="7" height="1" fill="#fff6d8"/>
<rect x="28" y="9" width="1" height="1" fill="#e8d9a0"/>
<rect x="29" y="9" width="67" height="1" fill="#101a45"/>
<rect x="0" y="10" width="21" height="1" fill="#101a45"/>
<rect x="21" y="10" width="1" height="1" fill="#e8d9a0"/>
<rect x="22" y="10" width="5" height="1" fill="#fff6d8"/>
<rect x="27" y="10" width="1" height="1" fill="#e8d9a0"/>
<rect x="28" y="10" width="17" height="1" fill="#101a45"/>
<rect x="45" y="10" width="1" height="1" fill="#ffffff"/>
<rect x="46" y="10" width="35" height="1" fill="#101a45"/>
<rect x="81" y="10" width="1" height="1" fill="#cfe0ff"/>
<rect x="82" y="10" width="14" height="1" fill="#101a45"/>
<rect x="0" y="11" width="21" height="1" fill="#101a45"/>
<rect x="21" y="11" width="1" height="1" fill="#e8d9a0"/>
<rect x="22" y="11" width="5" height="1" fill="#fff6d8"/>
<rect x="27" y="11" width="1" height="1" fill="#e8d9a0"/>
<rect x="28" y="11" width="14" height="1" fill="#101a45"/>
<rect x="42" y="11" width="1" height="1" fill="#ffffff"/>
<rect x="43" y="11" width="53" height="1" fill="#101a45"/>
<rect x="0" y="12" width="22" height="1" fill="#101a45"/>
<rect x="22" y="12" width="2" height="1" fill="#e8d9a0"/>
<rect x="24" y="12" width="1" height="1" fill="#fff6d8"/>
<rect x="25" y="12" width="2" height="1" fill="#e8d9a0"/>
<rect x="27" y="12" width="38" height="1" fill="#101a45"/>
<rect x="65" y="12" width="2" height="1" fill="#ffffff"/>
<rect x="67" y="12" width="25" height="1" fill="#101a45"/>
<rect x="92" y="12" width="1" height="1" fill="#ffffff"/>
<rect x="93" y="12" width="3" height="1" fill="#101a45"/>
<rect x="0" y="13" width="16" height="1" fill="#101a45"/>
<rect x="16" y="13" width="1" height="1" fill="#cfe0ff"/>
<rect x="17" y="13" width="7" height="1" fill="#101a45"/>
<rect x="24" y="13" width="1" height="1" fill="#e8d9a0"/>
<rect x="25" y="13" width="53" height="1" fill="#101a45"/>
<rect x="78" y="13" width="1" height="1" fill="#cfe0ff"/>
<rect x="79" y="13" width="17" height="1" fill="#101a45"/>
<rect x="0" y="14" width="16" height="1" fill="#101a45"/>
<rect x="16" y="14" width="1" height="1" fill="#ffffff"/>
<rect x="17" y="14" width="79" height="1" fill="#101a45"/>
<rect x="0" y="15" width="6" height="1" fill="#101a45"/>
<rect x="6" y="15" width="1" height="1" fill="#ffffff"/>
<rect x="7" y="15" width="41" height="1" fill="#101a45"/>
<rect x="48" y="15" width="1" height="1" fill="#ffffff"/>
<rect x="49" y="15" width="47" height="1" fill="#101a45"/>
<rect x="0" y="16" width="96" height="1" fill="#101a45"/>
<rect x="0" y="17" width="1" height="1" fill="#182458"/>
<rect x="1" y="17" width="1" height="1" fill="#101a45"/>
<rect x="2" y="17" width="1" height="1" fill="#182458"/>
<rect x="3" y="17" width="1" height="1" fill="#101a45"/>
<rect x="4" y="17" width="1" height="1" fill="#182458"/>
<rect x="5" y="17" width="1" height="1" fill="#101a45"/>
<rect x="6" y="17" width="1" height="1" fill="#182458"/>
<rect x="7" y="17" width="1" height="1" fill="#101a45"/>
<rect x="8" y="17" width="1" height="1" fill="#182458"/>
<rect x="9" y="17" width="1" height="1" fill="#101a45"/>
<rect x="10" y="17" width="1" height="1" fill="#182458"/>
<rect x="11" y="17" width="1" height="1" fill="#101a45"/>
<rect x="12" y="17" width="1" height="1" fill="#182458"/>
<rect x="13" y="17" width="1" height="1" fill="#101a45"/>
<rect x="14" y="17" width="1" height="1" fill="#182458"/>
<rect x="15" y="17" width="1" height="1" fill="#101a45"/>
<rect x="16" y="17" width="1" height="1" fill="#182458"/>
<rect x="17" y="17" width="1" height="1" fill="#101a45"/>
<rect x="18" y="17" width="1" height="1" fill="#182458"/>
<rect x="19" y="17" width="1" height="1" fill="#101a45"/>
<rect x="20" y="17" width="1" height="1" fill="#182458"/>
<rect x="21" y="17" width="1" height="1" fill="#101a45"/>
<rect x="22" y="17" width="1" height="1" fill="#182458"/>
<rect x="23" y="17" width="1" height="1" fill="#101a45"/>
<rect x="24" y="17" width="1" height="1" fill="#182458"/>
<rect x="25" y="17" width="1" height="1" fill="#101a45"/>
<rect x="26" y="17" width="1" height="1" fill="#182458"/>
<rect x="27" y="17" width="1" height="1" fill="#101a45"/>
<rect x="28" y="17" width="1" height="1" fill="#182458"/>
<rect x="29" y="17" width="1" height="1" fill="#101a45"/>
<rect x="30" y="17" width="1" height="1" fill="#182458"/>
<rect x="31" y="17" width="1" height="1" fill="#101a45"/>
<rect x="32" y="17" width="1" height="1" fill="#182458"/>
<rect x="33" y="17" width="1" height="1" fill="#101a45"/>
<rect x="34" y="17" width="1" height="1" fill="#182458"/>
<rect x="35" y="17" width="1" height="1" fill="#101a45"/>
<rect x="36" y="17" width="1" height="1" fill="#182458"/>
<rect x="37" y="17" width="1" height="1" fill="#101a45"/>
<rect x="38" y="17" width="1" height="1" fill="#182458"/>
<rect x="39" y="17" width="1" height="1" fill="#cfe0ff"/>
<rect x="40" y="17" width="1" height="1" fill="#182458"/>
<rect x="41" y="17" width="1" height="1" fill="#cfe0ff"/>
<rect x="42" y="17" width="1" height="1" fill="#182458"/>
<rect x="43" y="17" width="1" height="1" fill="#101a45"/>
<rect x="44" y="17" width="1" height="1" fill="#182458"/>
<rect x="45" y="17" width="1" height="1" fill="#101a45"/>
<rect x="46" y="17" width="1" height="1" fill="#182458"/>
<rect x="47" y="17" width="1" height="1" fill="#101a45"/>
<rect x="48" y="17" width="1" height="1" fill="#182458"/>
<rect x="49" y="17" width="1" height="1" fill="#101a45"/>
<rect x="50" y="17" width="1" height="1" fill="#182458"/>
<rect x="51" y="17" width="1" height="1" fill="#101a45"/>
<rect x="52" y="17" width="1" height="1" fill="#182458"/>
<rect x="53" y="17" width="1" height="1" fill="#101a45"/>
<rect x="54" y="17" width="1" height="1" fill="#182458"/>
<rect x="55" y="17" width="1" height="1" fill="#101a45"/>
<rect x="56" y="17" width="1" height="1" fill="#182458"/>
<rect x="57" y="17" width="1" height="1" fill="#101a45"/>
<rect x="58" y="17" width="1" height="1" fill="#182458"/>
<rect x="59" y="17" width="1" height="1" fill="#101a45"/>
<rect x="60" y="17" width="1" height="1" fill="#cfe0ff"/>
<rect x="61" y="17" width="1" height="1" fill="#101a45"/>
<rect x="62" y="17" width="1" height="1" fill="#182458"/>
<rect x="63" y="17" width="1" height="1" fill="#101a45"/>
<rect x="64" y="17" width="1" height="1" fill="#182458"/>
<rect x="65" y="17" width="1" height="1" fill="#101a45"/>
<rect x="66" y="17" width="1" height="1" fill="#182458"/>
<rect x="67" y="17" width="1" height="1" fill="#101a45"/>
<rect x="68" y="17" width="1" height="1" fill="#182458"/>
<rect x="69" y="17" width="1" height="1" fill="#101a45"/>
<rect x="70" y="17" width="1" height="1" fill="#182458"/>
<rect x="71" y="17" width="1" height="1" fill="#101a45"/>
<rect x="72" y="17" width="1" height="1" fill="#182458"/>
<rect x="73" y="17" width="1" height="1" fill="#101a45"/>
<rect x="74" y="17" width="1" height="1" fill="#182458"/>
<rect x="75" y="17" width="1" height="1" fill="#101a45"/>
<rect x="76" y="17" width="1" height="1" fill="#182458"/>
<rect x="77" y="17" width="1" height="1" fill="#101a45"/>
<rect x="78" y="17" width="1" height="1" fill="#182458"/>
<rect x="79" y="17" width="1" height="1" fill="#101a45"/>
<rect x="80" y="17" width="1" height="1" fill="#182458"/>
<rect x="81" y="17" width="1" height="1" fill="#101a45"/>
<rect x="82" y="17" width="1" height="1" fill="#182458"/>
<rect x="83" y="17" width="1" height="1" fill="#101a45"/>
<rect x="84" y="17" width="1" height="1" fill="#182458"/>
<rect x="85" y="17" width="1" height="1" fill="#101a45"/>
<rect x="86" y="17" width="1" height="1" fill="#182458"/>
<rect x="87" y="17" width="1" height="1" fill="#101a45"/>
<rect x="88" y="17" width="1" height="1" fill="#182458"/>
<rect x="89" y="17" width="1" height="1" fill="#101a45"/>
<rect x="90" y="17" width="1" height="1" fill="#182458"/>
<rect x="91" y="17" width="1" height="1" fill="#101a45"/>
<rect x="92" y="17" width="1" height="1" fill="#182458"/>
<rect x="93" y="17" width="1" height="1" fill="#101a45"/>
<rect x="94" y="17" width="1" height="1" fill="#182458"/>
<rect x="95" y="17" width="1" height="1" fill="#101a45"/>
<rect x="0" y="18" width="36" height="1" fill="#182458"/>
<rect x="36" y="18" width="2" height="1" fill="#cfe0ff"/>
<rect x="38" y="18" width="9" height="1" fill="#182458"/>
<rect x="47" y="18" width="1" height="1" fill="#cfe0ff"/>
<rect x="48" y="18" width="37" height="1" fill="#182458"/>
<rect x="85" y="18" width="1" height="1" fill="#ffffff"/>
<rect x="86" y="18" width="10" height="1" fill="#182458"/>
<rect x="0" y="19" width="4" height="1" fill="#182458"/>
<rect x="4" y="19" width="1" height="1" fill="#cfe0ff"/>
<rect x="5" y="19" width="22" height="1" fill="#182458"/>
<rect x="27" y="19" width="1" height="1" fill="#ffffff"/>
<rect x="28" y="19" width="20" height="1" fill="#182458"/>
<rect x="48" y="19" width="1" height="1" fill="#cfe0ff"/>
<rect x="49" y="19" width="1" height="1" fill="#182458"/>
<rect x="50" y="19" width="1" height="1" fill="#ffffff"/>
<rect x="51" y="19" width="27" height="1" fill="#182458"/>
<rect x="78" y="19" width="2" height="1" fill="#cfe0ff"/>
<rect x="80" y="19" width="16" height="1" fill="#182458"/>
<rect x="0" y="20" width="15" height="1" fill="#182458"/>
<rect x="15" y="20" width="1" height="1" fill="#cfe0ff"/>
<rect x="16" y="20" width="63" height="1" fill="#182458"/>
<rect x="79" y="20" width="1" height="1" fill="#ffffff"/>
<rect x="80" y="20" width="16" height="1" fill="#182458"/>
<rect x="0" y="21" width="60" height="1" fill="#182458"/>
<rect x="60" y="21" width="1" height="1" fill="#ffffff"/>
<rect x="61" y="21" width="6" height="1" fill="#182458"/>
<rect x="67" y="21" width="1" height="1" fill="#cfe0ff"/>
<rect x="68" y="21" width="28" height="1" fill="#182458"/>
<rect x="0" y="22" width="33" height="1" fill="#182458"/>
<rect x="33" y="22" width="1" height="1" fill="#ffffff"/>
<rect x="34" y="22" width="11" height="1" fill="#182458"/>
<rect x="45" y="22" width="7" height="1" fill="#151d40"/>
<rect x="52" y="22" width="44" height="1" fill="#182458"/>
<rect x="0" y="23" width="42" height="1" fill="#182458"/>
<rect x="42" y="23" width="13" height="1" fill="#151d40"/>
<rect x="55" y="23" width="41" height="1" fill="#182458"/>
<rect x="0" y="24" width="40" height="1" fill="#182458"/>
<rect x="40" y="24" width="17" height="1" fill="#151d40"/>
<rect x="57" y="24" width="5" height="1" fill="#182458"/>
<rect x="62" y="24" width="2" height="1" fill="#ffffff"/>
<rect x="64" y="24" width="32" height="1" fill="#182458"/>
<rect x="0" y="25" width="3" height="1" fill="#182458"/>
<rect x="3" y="25" width="1" height="1" fill="#ffffff"/>
<rect x="4" y="25" width="1" height="1" fill="#cfe0ff"/>
<rect x="5" y="25" width="17" height="1" fill="#182458"/>
<rect x="22" y="25" width="2" height="1" fill="#ffffff"/>
<rect x="24" y="25" width="13" height="1" fill="#182458"/>
<rect x="37" y="25" width="23" height="1" fill="#151d40"/>
<rect x="60" y="25" width="36" height="1" fill="#182458"/>
<rect x="0" y="26" width="1" height="1" fill="#182458"/>
<rect x="1" y="26" width="1" height="1" fill="#20306b"/>
<rect x="2" y="26" width="1" height="1" fill="#182458"/>
<rect x="3" y="26" width="1" height="1" fill="#20306b"/>
<rect x="4" y="26" width="1" height="1" fill="#182458"/>
<rect x="5" y="26" width="1" height="1" fill="#20306b"/>
<rect x="6" y="26" width="1" height="1" fill="#182458"/>
<rect x="7" y="26" width="1" height="1" fill="#20306b"/>
<rect x="8" y="26" width="1" height="1" fill="#182458"/>
<rect x="9" y="26" width="1" height="1" fill="#20306b"/>
<rect x="10" y="26" width="1" height="1" fill="#182458"/>
<rect x="11" y="26" width="1" height="1" fill="#20306b"/>
<rect x="12" y="26" width="1" height="1" fill="#182458"/>
<rect x="13" y="26" width="1" height="1" fill="#20306b"/>
<rect x="14" y="26" width="1" height="1" fill="#182458"/>
<rect x="15" y="26" width="1" height="1" fill="#20306b"/>
<rect x="16" y="26" width="1" height="1" fill="#182458"/>
<rect x="17" y="26" width="1" height="1" fill="#20306b"/>
<rect x="18" y="26" width="5" height="1" fill="#1b2547"/>
<rect x="23" y="26" width="1" height="1" fill="#20306b"/>
<rect x="24" y="26" width="1" height="1" fill="#182458"/>
<rect x="25" y="26" width="1" height="1" fill="#cfe0ff"/>
<rect x="26" y="26" width="1" height="1" fill="#182458"/>
<rect x="27" y="26" width="1" height="1" fill="#20306b"/>
<rect x="28" y="26" width="1" height="1" fill="#182458"/>
<rect x="29" y="26" width="1" height="1" fill="#20306b"/>
<rect x="30" y="26" width="1" height="1" fill="#182458"/>
<rect x="31" y="26" width="1" height="1" fill="#20306b"/>
<rect x="32" y="26" width="1" height="1" fill="#182458"/>
<rect x="33" y="26" width="1" height="1" fill="#20306b"/>
<rect x="34" y="26" width="29" height="1" fill="#151d40"/>
<rect x="63" y="26" width="1" height="1" fill="#20306b"/>
<rect x="64" y="26" width="1" height="1" fill="#182458"/>
<rect x="65" y="26" width="1" height="1" fill="#20306b"/>
<rect x="66" y="26" width="1" height="1" fill="#182458"/>
<rect x="67" y="26" width="1" height="1" fill="#20306b"/>
<rect x="68" y="26" width="1" height="1" fill="#182458"/>
<rect x="69" y="26" width="1" height="1" fill="#20306b"/>
<rect x="70" y="26" width="1" height="1" fill="#182458"/>
<rect x="71" y="26" width="1" height="1" fill="#20306b"/>
<rect x="72" y="26" width="1" height="1" fill="#182458"/>
<rect x="73" y="26" width="1" height="1" fill="#20306b"/>
<rect x="74" y="26" width="1" height="1" fill="#182458"/>
<rect x="75" y="26" width="1" height="1" fill="#20306b"/>
<rect x="76" y="26" width="1" height="1" fill="#182458"/>
<rect x="77" y="26" width="1" height="1" fill="#20306b"/>
<rect x="78" y="26" width="1" height="1" fill="#182458"/>
<rect x="79" y="26" width="1" height="1" fill="#20306b"/>
<rect x="80" y="26" width="1" height="1" fill="#182458"/>
<rect x="81" y="26" width="1" height="1" fill="#20306b"/>
<rect x="82" y="26" width="1" height="1" fill="#182458"/>
<rect x="83" y="26" width="1" height="1" fill="#20306b"/>
<rect x="84" y="26" width="1" height="1" fill="#182458"/>
<rect x="85" y="26" width="1" height="1" fill="#20306b"/>
<rect x="86" y="26" width="1" height="1" fill="#182458"/>
<rect x="87" y="26" width="1" height="1" fill="#20306b"/>
<rect x="88" y="26" width="1" height="1" fill="#182458"/>
<rect x="89" y="26" width="1" height="1" fill="#20306b"/>
<rect x="90" y="26" width="1" height="1" fill="#182458"/>
<rect x="91" y="26" width="1" height="1" fill="#20306b"/>
<rect x="92" y="26" width="1" height="1" fill="#182458"/>
<rect x="93" y="26" width="1" height="1" fill="#20306b"/>
<rect x="94" y="26" width="1" height="1" fill="#182458"/>
<rect x="95" y="26" width="1" height="1" fill="#20306b"/>
<rect x="0" y="27" width="15" height="1" fill="#20306b"/>
<rect x="15" y="27" width="11" height="1" fill="#1b2547"/>
<rect x="26" y="27" width="5" height="1" fill="#20306b"/>
<rect x="31" y="27" width="35" height="1" fill="#151d40"/>
<rect x="66" y="27" width="30" height="1" fill="#20306b"/>
<rect x="0" y="28" width="12" height="1" fill="#20306b"/>
<rect x="12" y="28" width="17" height="1" fill="#1b2547"/>
<rect x="29" y="28" width="40" height="1" fill="#151d40"/>
<rect x="69" y="28" width="7" height="1" fill="#20306b"/>
<rect x="76" y="28" width="1" height="1" fill="#ffffff"/>
<rect x="77" y="28" width="19" height="1" fill="#20306b"/>
<rect x="0" y="29" width="10" height="1" fill="#20306b"/>
<rect x="10" y="29" width="21" height="1" fill="#1b2547"/>
<rect x="31" y="29" width="41" height="1" fill="#151d40"/>
<rect x="72" y="29" width="24" height="1" fill="#20306b"/>
<rect x="0" y="30" width="8" height="1" fill="#20306b"/>
<rect x="8" y="30" width="25" height="1" fill="#1b2547"/>
<rect x="33" y="30" width="42" height="1" fill="#151d40"/>
<rect x="75" y="30" width="21" height="1" fill="#20306b"/>
<rect x="0" y="31" width="5" height="1" fill="#20306b"/>
<rect x="5" y="31" width="31" height="1" fill="#1b2547"/>
<rect x="36" y="31" width="41" height="1" fill="#151d40"/>
<rect x="77" y="31" width="19" height="1" fill="#20306b"/>
<rect x="0" y="32" width="2" height="1" fill="#20306b"/>
<rect x="2" y="32" width="37" height="1" fill="#1b2547"/>
<rect x="39" y="32" width="41" height="1" fill="#151d40"/>
<rect x="80" y="32" width="16" height="1" fill="#20306b"/>
<rect x="0" y="33" width="41" height="1" fill="#1b2547"/>
<rect x="41" y="33" width="42" height="1" fill="#151d40"/>
<rect x="83" y="33" width="13" height="1" fill="#20306b"/>
<rect x="0" y="34" width="96" height="1" fill="#0d1838"/>
<rect x="0" y="35" width="96" height="1" fill="#0d1838"/>
<rect x="0" y="36" width="24" height="1" fill="#0d1838"/>
<rect x="24" y="36" width="2" height="1" fill="#8a90b8"/>
<rect x="26" y="36" width="70" height="1" fill="#0d1838"/>
<rect x="0" y="37" width="96" height="1" fill="#15224a"/>
<rect x="0" y="38" width="96" height="1" fill="#0d1838"/>
<rect x="0" y="39" width="23" height="1" fill="#0d1838"/>
<rect x="23" y="39" width="3" height="1" fill="#8a90b8"/>
<rect x="26" y="39" width="70" height="1" fill="#0d1838"/>
<rect x="0" y="40" width="96" height="1" fill="#0d1838"/>
<rect x="0" y="41" width="24" height="1" fill="#15224a"/>
<rect x="24" y="41" width="2" height="1" fill="#8a90b8"/>
<rect x="26" y="41" width="25" height="1" fill="#15224a"/>
<rect x="51" y="41" width="1" height="1" fill="#cfe0ff"/>
<rect x="52" y="41" width="6" height="1" fill="#15224a"/>
<rect x="58" y="41" width="1" height="1" fill="#cfe0ff"/>
<rect x="59" y="41" width="4" height="1" fill="#15224a"/>
<rect x="63" y="41" width="1" height="1" fill="#cfe0ff"/>
<rect x="64" y="41" width="3" height="1" fill="#15224a"/>
<rect x="67" y="41" width="1" height="1" fill="#7a6a3f"/>
<rect x="68" y="41" width="28" height="1" fill="#15224a"/>
<rect x="0" y="42" width="66" height="1" fill="#0d1838"/>
<rect x="66" y="42" width="1" height="1" fill="#7a6a3f"/>
<rect x="67" y="42" width="1" height="1" fill="#ffcf6e"/>
<rect x="68" y="42" width="1" height="1" fill="#7a6a3f"/>
<rect x="69" y="42" width="27" height="1" fill="#0d1838"/>
<rect x="0" y="43" width="96" height="1" fill="#0d1838"/>
<rect x="0" y="44" width="24" height="1" fill="#0d1838"/>
<rect x="24" y="44" width="3" height="1" fill="#8a90b8"/>
<rect x="27" y="44" width="21" height="1" fill="#0d1838"/>
<rect x="48" y="44" width="1" height="1" fill="#cfe0ff"/>
<rect x="49" y="44" width="14" height="1" fill="#0d1838"/>
<rect x="63" y="44" width="7" height="1" fill="#060a18"/>
<rect x="70" y="44" width="26" height="1" fill="#0d1838"/>
<rect x="0" y="45" width="64" height="1" fill="#15224a"/>
<rect x="64" y="45" width="5" height="1" fill="#060a18"/>
<rect x="69" y="45" width="27" height="1" fill="#15224a"/>
<rect x="0" y="46" width="41" height="1" fill="#0d1838"/>
<rect x="41" y="46" width="1" height="1" fill="#cfe0ff"/>
<rect x="42" y="46" width="28" height="1" fill="#0d1838"/>
<rect x="70" y="46" width="1" height="1" fill="#cfe0ff"/>
<rect x="71" y="46" width="25" height="1" fill="#0d1838"/>
<rect x="0" y="47" width="50" height="1" fill="#0b1530"/>
<rect x="50" y="47" width="1" height="1" fill="#cfe0ff"/>
<rect x="51" y="47" width="45" height="1" fill="#0b1530"/>
<rect x="0" y="48" width="96" height="1" fill="#0b1530"/>
<rect x="0" y="49" width="28" height="1" fill="#15224a"/>
<rect x="28" y="49" width="1" height="1" fill="#cfe0ff"/>
<rect x="29" y="49" width="13" height="1" fill="#15224a"/>
<rect x="42" y="49" width="1" height="1" fill="#cfe0ff"/>
<rect x="43" y="49" width="53" height="1" fill="#15224a"/>
<rect x="0" y="50" width="96" height="1" fill="#0b1530"/>
<rect x="0" y="51" width="96" height="1" fill="#0b1530"/>
<rect x="0" y="52" width="96" height="1" fill="#0b1530"/>
<rect x="0" y="53" width="96" height="1" fill="#15224a"/>
</svg>